<svg width="39" height="39" xmlns="http://www.w3.org/2000/svg" xmlns:xlink="http://www.w3.org/1999/xlink" xml:space="preserve" overflow="hidden"><g transform="translate(-364 -354)"><path d="M397.188 380.144 369.886 380.144C367.491 380.144 365.542 378.196 365.542 375.802L365.542 371.271C365.542 368.877 367.491 366.929 369.886 366.929L397.188 366.929C399.583 366.929 401.531 368.877 401.531 371.271L401.531 375.802C401.531 378.196 399.583 380.144 397.188 380.144ZM369.886 367.879C368.015 367.879 366.492 369.401 366.492 371.271L366.492 375.802C366.492 377.672 368.015 379.194 369.886 379.194L397.188 379.194C399.059 379.194 400.581 377.672 400.581 375.802L400.581 371.271C400.581 369.4 399.059 367.879 397.188 367.879L369.886 367.879Z" fill="#FF0000"/><path d="M373.79 376.396C373.644 376.396 373.499 376.328 373.406 376.2L372.244 374.6 371.075 376.201C370.92 376.413 370.623 376.459 370.411 376.304 370.199 376.149 370.153 375.852 370.308 375.641L371.475 374.042 369.587 373.425C369.338 373.344 369.202 373.076 369.283 372.826 369.364 372.577 369.632 372.441 369.882 372.522L371.769 373.138 371.766 371.153C371.766 370.891 371.978 370.678 372.24 370.677 372.241 370.677 372.241 370.677 372.241 370.677 372.503 370.677 372.716 370.89 372.716 371.152L372.719 373.139 374.602 372.522C374.852 372.441 375.12 372.577 375.201 372.826 375.283 373.076 375.147 373.344 374.898 373.425L373.012 374.042 374.174 375.642C374.328 375.854 374.281 376.151 374.069 376.305 373.985 376.366 373.887 376.396 373.79 376.396ZM380.874 376.396C380.727 376.396 380.582 376.328 380.489 376.2L379.323 374.599 378.154 376.201C377.999 376.412 377.702 376.459 377.49 376.304 377.278 376.149 377.232 375.852 377.387 375.64L378.554 374.042 376.667 373.425C376.418 373.344 376.281 373.076 376.363 372.826 376.444 372.577 376.712 372.441 376.962 372.522L378.848 373.138 378.845 371.153C378.845 370.891 379.057 370.678 379.319 370.677 379.32 370.677 379.32 370.677 379.32 370.677 379.582 370.677 379.795 370.889 379.795 371.152L379.797 373.139 381.681 372.522C381.931 372.441 382.199 372.577 382.28 372.826 382.362 373.075 382.226 373.344 381.977 373.425L380.092 374.042 381.257 375.641C381.412 375.853 381.365 376.15 381.153 376.304 381.069 376.366 380.971 376.396 380.874 376.396ZM384.853 376.396C384.756 376.396 384.658 376.366 384.574 376.305 384.362 376.15 384.315 375.853 384.469 375.641L385.634 374.042 383.746 373.425C383.496 373.344 383.36 373.076 383.442 372.826 383.523 372.577 383.792 372.441 384.041 372.522L385.927 373.139 385.927 371.152C385.927 370.89 386.14 370.677 386.402 370.677 386.665 370.677 386.877 370.89 386.877 371.152L386.877 373.138 388.761 372.522C389.011 372.441 389.279 372.577 389.36 372.826 389.442 373.075 389.306 373.344 389.056 373.425L387.171 374.042 388.336 375.641C388.491 375.853 388.444 376.15 388.232 376.304 388.02 376.459 387.723 376.412 387.568 376.2L386.402 374.6 385.237 376.2C385.144 376.328 385 376.396 384.853 376.396ZM398.184 377.52 393.471 377.52C392.925 377.52 392.482 377.077 392.482 376.532L392.482 373.118C392.482 372.572 392.925 372.129 393.471 372.129L398.184 372.129C398.73 372.129 399.173 372.572 399.173 373.118L399.173 376.532C399.174 377.077 398.73 377.52 398.184 377.52ZM393.471 373.079C393.449 373.079 393.431 373.1 393.431 373.118L393.431 376.532C393.431 376.553 393.449 376.57 393.471 376.57L398.184 376.57C398.206 376.57 398.224 376.553 398.224 376.532L398.224 373.118C398.224 373.1 398.206 373.079 398.184 373.079L393.471 373.079Z" fill="#FF0000"/><path d="M397.609 373.079 394.046 373.079C393.784 373.079 393.571 372.866 393.571 372.604L393.571 370.821C393.571 369.577 394.585 368.564 395.83 368.564 397.073 368.564 398.084 369.577 398.084 370.821L398.084 372.604C398.084 372.866 397.871 373.079 397.609 373.079ZM394.521 372.129 397.134 372.129 397.134 370.821C397.134 370.101 396.549 369.514 395.83 369.514 395.108 369.514 394.521 370.101 394.521 370.821L394.521 372.129ZM395.83 375.217C395.371 375.217 394.998 374.844 394.998 374.386 394.998 373.93 395.371 373.559 395.83 373.559 396.286 373.559 396.657 373.93 396.657 374.386 396.657 374.844 396.286 375.217 395.83 375.217ZM395.83 374.267C395.762 374.267 395.707 374.32 395.707 374.386 395.707 374.454 395.762 374.509 395.83 374.509 395.895 374.509 395.948 374.454 395.948 374.386 395.948 374.321 395.894 374.267 395.83 374.267Z" fill="#FF0000"/><path d="M395.83 376.148C395.568 376.148 395.355 375.935 395.355 375.673L395.355 374.825C395.355 374.562 395.568 374.35 395.83 374.35 396.092 374.35 396.305 374.562 396.305 374.825L396.305 375.673C396.305 375.935 396.092 376.148 395.83 376.148Z" fill="#FF0000"/></g></svg>